{
    "asset" : {
        "generator" : "Khronos glTF Blender I/O v1.7.33",
        "version" : "2.0"
    },
    "scene" : 0,
    "scenes" : [
        {
            "name" : "Scene",
            "nodes" : [
                0
            ]
        }
    ],
    "nodes" : [
        {
            "mesh" : 0,
            "name" : "bs_smile",
            "rotation" : [
                0.7071068286895752,
                0,
                0,
                0.7071067094802856
            ]
        }
    ],
    "materials" : [
        {
            "doubleSided" : true,
            "name" : "Default OBJ",
            "pbrMetallicRoughness" : {
                "baseColorFactor" : [
                    0.800000011920929,
                    0.800000011920929,
                    0.800000011920929,
                    1
                ],
                "metallicFactor" : 0,
                "roughnessFactor" : 0.5
            }
        }
    ],
    "meshes" : [
        {
            "name" : "bs_smile",
            "primitives" : [
                {
                    "attributes" : {
                        "POSITION" : 0,
                        "NORMAL" : 1,
                        "TANGENT" : 2,
                        "TEXCOORD_0" : 3
                    },
                    "indices" : 4,
                    "material" : 0
                }
            ]
        }
    ],
    "accessors" : [
        {
            "bufferView" : 0,
            "componentType" : 5126,
            "count" : 19985,
            "max" : [
                0.5279759764671326,
                0.7911700010299683,
                0.6600509881973267
            ],
            "min" : [
                -0.5279759764671326,
                -0.39153599739074707,
                -0.5271880030632019
            ],
            "type" : "VEC3"
        },
        {
            "bufferView" : 1,
            "componentType" : 5126,
            "count" : 19985,
            "type" : "VEC3"
        },
        {
            "bufferView" : 2,
            "componentType" : 5126,
            "count" : 19985,
            "type" : "VEC4"
        },
        {
            "bufferView" : 3,
            "componentType" : 5126,
            "count" : 19985,
            "type" : "VEC2"
        },
        {
            "bufferView" : 4,
            "componentType" : 5123,
            "count" : 119568,
            "type" : "SCALAR"
        }
    ],
    "bufferViews" : [
        {
            "buffer" : 0,
            "byteLength" : 239820,
            "byteOffset" : 0
        },
        {
            "buffer" : 0,
            "byteLength" : 239820,
            "byteOffset" : 239820
        },
        {
            "buffer" : 0,
            "byteLength" : 319760,
            "byteOffset" : 479640
        },
        {
            "buffer" : 0,
            "byteLength" : 159880,
            "byteOffset" : 799400
        },
        {
            "buffer" : 0,
            "byteLength" : 239136,
            "byteOffset" : 959280
        }
    ],
    "buffers" : [
        {
            "byteLength" : 1198416,
            "uri" : "data:application/octet-stream;base64,"
        }
    ]
}
